<?xml version="1.0" encoding="UTF-8" standalone="no"?>
<!-- Created with Inkscape (http://www.inkscape.org/) -->

<svg
   xmlns:dc="http://purl.org/dc/elements/1.1/"
   xmlns:cc="http://creativecommons.org/ns#"
   xmlns:rdf="http://www.w3.org/1999/02/22-rdf-syntax-ns#"
   xmlns:svg="http://www.w3.org/2000/svg"
   xmlns="http://www.w3.org/2000/svg"
   version="1.1"
   width="44"
   height="44"
   viewBox="85 145 44 44"
   id="svg3260">
  <defs
     id="defs3272" />
  <metadata
     id="metadata3262">
    <rdf:RDF>
      <cc:Work
         rdf:about="">
        <dc:format>image/svg+xml</dc:format>
        <dc:type
           rdf:resource="http://purl.org/dc/dcmitype/StillImage" />
        <dc:title></dc:title>
      </cc:Work>
    </rdf:RDF>
  </metadata>
  <path
     d="m 127.3417,156.57313 c -5.05187,-3.46377 -7.44208,-6.49315 -7.44208,-6.49315 -9.32941,5.49719 -19.23716,25.0163 -19.23716,25.0163 -4.643211,-6.53649 -9.311789,-8.35966 -9.311789,-8.35966 -2.098828,2.80457 -5.716607,6.54224 -5.716607,6.54224 8.438042,2.27253 15.520626,10.61189 15.520626,10.61189 15.3108,-24.03768 26.18701,-27.31762 26.18701,-27.31762 z"
     id="path3264"
     style="fill:#5fd35f;fill-opacity:1;fill-rule:evenodd;stroke:none" />
  <path
     d="m 128.36594,156.60239 c -5.05186,-3.46376 -7.44207,-6.49315 -7.44207,-6.49315 -9.32941,5.49719 -19.23716,25.01631 -19.23716,25.01631 -4.643213,-6.53649 -9.311793,-8.35967 -9.311793,-8.35967 -2.098828,2.80458 -5.716607,6.54224 -5.716607,6.54224 8.438041,2.27254 15.52062,10.6119 15.52062,10.6119 15.3108,-24.03768 26.18701,-27.31763 26.18701,-27.31763 z"
     id="path3268"
     style="opacity:0.27777782;fill:#5fd35f;fill-opacity:1;fill-rule:evenodd;stroke:none" />
  <g
     transform="matrix(1.0429588,0,0,1.0429588,-4.8119352,-6.7637338)"
     id="text3274"
     style="font-size:27px;font-style:normal;font-variant:normal;font-weight:bold;font-stretch:normal;text-align:start;line-height:125%;letter-spacing:0px;word-spacing:0px;writing-mode:lr-tb;text-anchor:start;fill:#9e9e9e;fill-opacity:1;fill-rule:nonzero;stroke:none;font-family:Trebuchet MS;-inkscape-font-specification:Trebuchet MS Bold">
    <path
       d="m 105.84232,160.53287 -10.085454,0 c 0.06152,1.125 0.448238,1.99951 1.160157,2.62353 0.711908,0.62403 1.669914,0.93604 2.874023,0.93604 1.502924,0 2.645494,-0.39111 3.427734,-1.17334 l 1.27881,2.51806 c -1.16017,0.94043 -2.89161,1.41065 -5.194337,1.41065 -2.153326,0 -3.858402,-0.62842 -5.115234,-1.88526 -1.248049,-1.26562 -1.872071,-3.02782 -1.872071,-5.28662 0,-2.22362 0.685546,-4.02538 2.056641,-5.40527 1.379879,-1.37987 3.032221,-2.06981 4.957031,-2.06982 2.04784,1e-5 3.6914,0.61085 4.93066,1.83252 1.23925,1.22169 1.85888,2.77735 1.85889,4.66699 -1e-5,0.4043 -0.0923,1.01514 -0.27685,1.83252 m -9.966801,-2.47852 6.934571,0 c -0.22853,-2.06542 -1.3711,-3.09813 -3.427735,-3.09814 -1.880866,1e-5 -3.04981,1.03272 -3.506836,3.09814 m 7.409181,-11.35107 -2.97949,3.86279 -2.504887,0 2.228027,-3.86279 3.25635,0"
       id="path4627"
       style="fill:#9e9e9e;fill-opacity:1;fill-rule:nonzero" />
  </g>
</svg>
