<?xml version="1.0" encoding="UTF-8" standalone="no"?>
<svg
   xmlns:dc="http://purl.org/dc/elements/1.1/"
   xmlns:cc="http://creativecommons.org/ns#"
   xmlns:rdf="http://www.w3.org/1999/02/22-rdf-syntax-ns#"
   xmlns:svg="http://www.w3.org/2000/svg"
   xmlns="http://www.w3.org/2000/svg"
   xmlns:sodipodi="http://sodipodi.sourceforge.net/DTD/sodipodi-0.dtd"
   xmlns:inkscape="http://www.inkscape.org/namespaces/inkscape"
   height="30px"
   version="1.1"
   viewBox="0 0 30 30"
   width="30px"
   x="0px"
   y="0px"
   id="svg2"
   inkscape:version="0.48.1 r9760"
   sodipodi:docname="toolbar-add.svg">
  <metadata
     id="metadata16">
    <rdf:RDF>
      <cc:Work
         rdf:about="">
        <dc:format>image/svg+xml</dc:format>
        <dc:type
           rdf:resource="http://purl.org/dc/dcmitype/StillImage" />
        <dc:title></dc:title>
      </cc:Work>
    </rdf:RDF>
  </metadata>
  <defs
     id="defs14" />
  <sodipodi:namedview
     pagecolor="#ffffff"
     bordercolor="#666666"
     borderopacity="1"
     objecttolerance="10"
     gridtolerance="10"
     guidetolerance="10"
     inkscape:pageopacity="0"
     inkscape:pageshadow="2"
     inkscape:window-width="1920"
     inkscape:window-height="1176"
     id="namedview12"
     showgrid="false"
     inkscape:zoom="16.4"
     inkscape:cx="11.965036"
     inkscape:cy="13.881401"
     inkscape:window-x="0"
     inkscape:window-y="1074"
     inkscape:window-maximized="1"
     inkscape:current-layer="svg2" />
  <path
     d="m 24.646367,26.281745 c -0.95724,0.95724 -2.513299,0.958108 -3.471407,0 L 15.1,20.206784 9.0250399,26.281745 c -0.9572408,0.95724 -2.5132986,0.958108 -3.4714067,0 L 3.8179301,24.546042 c -0.9572402,-0.95724 -0.9572402,-2.514166 0,-3.471407 L 9.8928905,14.999675 3.8179301,8.9247154 c -0.9572402,-0.9572418 -0.9572402,-2.5141666 0,-3.4714071 L 5.5536332,3.7176052 c 0.9563724,-0.9563722 2.5141659,-0.9572401 3.4714067,0 L 15.1,9.7925659 21.17496,3.7176052 c 0.956373,-0.9563722 2.514167,-0.9572401 3.471407,0 l 1.735702,1.7357031 c 0.958109,0.9581082 0.956373,2.5150331 0,3.4714071 l -6.07496,6.0749596 6.07496,6.07496 c 0.958109,0.958108 0.956373,2.515034 0,3.471407 l -1.735702,1.735703 z"
     id="path4"
     inkscape:connector-curvature="0"
     style="fill-opacity:0.15;stroke-opacity:0.15" />
  <path
     d="M 21.17496,3.7176052 14.232148,10.660418 7.2893363,3.7176052 c -0.4773184,-0.4773182 -1.2592527,-0.4764504 -1.7357031,0 L 3.8179301,5.4533083 c -0.4781862,0.4781861 -0.4773183,1.2583848 0,1.7357035 l 6.9428119,6.9428112 -6.9428119,6.942812 c -0.4773183,0.477319 -0.4773183,1.258385 0,1.735704 l 1.7357031,1.735703 c 0.4773183,0.477318 1.2583847,0.477318 1.7357031,0 l 6.9428117,-6.942813 6.942812,6.942813 c 0.477319,0.477318 1.257517,0.478185 1.735703,0 l 1.735704,-1.735703 c 0.47645,-0.476451 0.477318,-1.258385 0,-1.735704 l -6.942813,-6.942812 6.942813,-6.9428112 c 0.47645,-0.476451 0.477318,-1.2583852 0,-1.7357035 L 22.910663,3.7176052 c -0.477318,-0.4773182 -1.259252,-0.4764504 -1.735703,0 z"
     id="path6"
     inkscape:connector-curvature="0"
     style="fill-opacity:0.3;stroke-opacity:0.3" />
  <path
     d="M 22.042812,4.5854567 15.1,11.528269 8.1571878,4.5854567 c -0.4773184,-0.4773183 -1.2592526,-0.4764504 -1.7357031,0 L 4.6857816,6.3211601 c -0.4781861,0.4781863 -0.4773183,1.2583848 0,1.7357023 l 6.9428124,6.9428126 -6.9428124,6.942812 c -0.4773183,0.477319 -0.4773183,1.258385 0,1.735703 l 1.7357031,1.735703 c 0.4773183,0.477318 1.2583847,0.477318 1.7357031,0 L 15.1,18.471081 l 6.942812,6.942812 c 0.477318,0.477318 1.257517,0.478186 1.735703,0 l 1.735703,-1.735703 c 0.476451,-0.476451 0.477318,-1.258384 0,-1.735703 l -6.942812,-6.942812 6.942812,-6.9428126 c 0.476451,-0.4764498 0.477318,-1.258385 0,-1.7357023 L 23.778515,4.5854567 c -0.477318,-0.4773183 -1.259252,-0.4764504 -1.735703,0 z"
     id="path8"
     inkscape:connector-curvature="0"
     style="fill:#ffffff" />
  <rect
     height="30"
     width="30"
     id="rect10"
     fill="none" />
</svg>
