<?xml version="1.0" encoding="UTF-8" standalone="no"?>
<svg
   xmlns:dc="http://purl.org/dc/elements/1.1/"
   xmlns:cc="http://creativecommons.org/ns#"
   xmlns:rdf="http://www.w3.org/1999/02/22-rdf-syntax-ns#"
   xmlns:svg="http://www.w3.org/2000/svg"
   xmlns="http://www.w3.org/2000/svg"
   xmlns:sodipodi="http://sodipodi.sourceforge.net/DTD/sodipodi-0.dtd"
   xmlns:inkscape="http://www.inkscape.org/namespaces/inkscape"
   height="30px"
   version="1.1"
   viewBox="0 0 30 30"
   width="30px"
   x="0px"
   y="0px"
   id="svg2"
   inkscape:version="0.48.1 r9760"
   sodipodi:docname="up-down.svg">
  <metadata
     id="metadata16">
    <rdf:RDF>
      <cc:Work
         rdf:about="">
        <dc:format>image/svg+xml</dc:format>
        <dc:type
           rdf:resource="http://purl.org/dc/dcmitype/StillImage" />
        <dc:title />
      </cc:Work>
    </rdf:RDF>
  </metadata>
  <defs
     id="defs14" />
  <sodipodi:namedview
     pagecolor="#ffffff"
     bordercolor="#666666"
     borderopacity="1"
     objecttolerance="10"
     gridtolerance="10"
     guidetolerance="10"
     inkscape:pageopacity="0"
     inkscape:pageshadow="2"
     inkscape:window-width="992"
     inkscape:window-height="706"
     id="namedview12"
     showgrid="false"
     inkscape:zoom="9.6"
     inkscape:cx="31.320123"
     inkscape:cy="14.290427"
     inkscape:window-x="362"
     inkscape:window-y="1388"
     inkscape:window-maximized="0"
     inkscape:current-layer="svg2" />
  <path
     d="M 2,8.3314912 C 2,7.9620171 2.1429558,7.6153312 2.4033149,7.3549728 L 9.0234805,0.73480661 c 0.537984,-0.53867402 1.4150545,-0.53867402 1.9530385,0 L 17.596685,7.3549728 C 17.857044,7.6153312 18,7.9620171 18,8.3314912 18,8.7009664 17.857044,9.0476523 17.596685,9.3080107 l -1.095304,1.0953043 c -0.537984,0.538674 -1.415055,0.538674 -1.953039,0 l -2.476519,-2.4765193 0,8.6919883 C 12.071823,17.380525 11.452348,18 10.690608,18 L 9.309392,18 C 8.5476523,18 7.9281771,17.380525 7.9281771,16.618784 l 0,-8.6919883 -2.4765195,2.4765193 c -0.5379836,0.538674 -1.4150554,0.538674 -1.9530388,0 L 2.4033149,9.3080107 C 2.1429558,9.0476523 2,8.7009664 2,8.3314912 l 0,0 z"
     id="path4"
     inkscape:connector-curvature="0"
     style="fill-opacity:0.15;stroke-opacity:0.15" />
  <path
     d="m 11.381301,15.928091 0,-10.3591161 3.655388,3.6553867 c 0.268646,0.2686464 0.707872,0.2686464 0.976518,0 l 1.095305,-1.0953045 c 0.268646,-0.2686464 0.268646,-0.7078731 0,-0.9765195 L 10.488346,0.53237227 c -0.268647,-0.2686464 -0.7078735,-0.2686464 -0.9765199,0 L 2.8916609,7.1525376 c -0.2686464,0.2686464 -0.2686464,0.7078731 0,0.9765195 l 1.0953039,1.0953045 c 0.2686464,0.2686464 0.707873,0.2686464 0.9765194,0 l 3.6553862,-3.6553867 0,10.3591161 c 0,0.379833 0.3100832,0.690608 0.690608,0.690608 l 1.3812156,0 c 0.379144,0 0.690607,-0.310775 0.690607,-0.690608 z"
     id="path6"
     inkscape:connector-curvature="0"
     style="fill-opacity:0.3;stroke-opacity:0.3" />
  <path
     d="m 11.381301,16.618699 0,-10.3591171 3.655388,3.6553866 c 0.268646,0.2686465 0.707872,0.2686465 0.976518,0 l 1.095305,-1.0953034 c 0.268646,-0.2686464 0.268646,-0.7078731 0,-0.9765195 L 10.488346,1.2229803 c -0.268647,-0.26864643 -0.7078735,-0.26864643 -0.9765199,0 L 2.8916609,7.8431456 c -0.2686464,0.2686464 -0.2686464,0.7078731 0,0.9765195 l 1.0953039,1.0953034 c 0.2686464,0.2686465 0.707873,0.2686465 0.9765194,0 l 3.6553862,-3.6553866 0,10.3591171 c 0,0.379833 0.3107744,0.690607 0.690608,0.690607 l 1.3812156,0 c 0.379834,0 0.690607,-0.310774 0.690607,-0.690607 z"
     id="path8"
     inkscape:connector-curvature="0"
     style="fill:#ffffff" />
  <rect
     height="30"
     width="30"
     id="rect10"
     x="0"
     y="-30"
     transform="matrix(0,1,-1,0,0,0)"
     style="fill:none" />
  <path
     d="m 28,20.999311 c 0,0.369474 -0.142956,0.71616 -0.403315,0.976518 l -6.620167,6.620166 c -0.537983,0.538674 -1.415055,0.538674 -1.953039,0 L 12.403315,21.975829 C 12.142956,21.715471 12,21.368785 12,20.999311 c 0,-0.369475 0.142956,-0.716161 0.403315,-0.97652 l 1.095304,-1.095304 c 0.537984,-0.538675 1.415055,-0.538675 1.953039,0 l 2.476519,2.476519 0,-8.691988 c 0,-0.761741 0.619474,-1.381216 1.381215,-1.381216 l 1.381215,0 c 0.761741,0 1.381216,0.619475 1.381216,1.381216 l 0,8.691988 2.476519,-2.476519 c 0.537983,-0.538675 1.415055,-0.538675 1.953039,0 l 1.095304,1.095304 C 27.857044,20.28315 28,20.629836 28,20.999311 l 0,0 z"
     id="path4-6"
     inkscape:connector-curvature="0"
     style="fill-opacity:0.15;stroke-opacity:0.15" />
  <path
     d="m 18.618871,12.021497 0,10.359114 -3.655388,-3.655386 c -0.268647,-0.268647 -0.707872,-0.268647 -0.976519,0 l -1.095303,1.095304 c -0.268647,0.268646 -0.268647,0.707873 0,0.97652 l 6.620166,6.620165 c 0.268647,0.268646 0.707873,0.268646 0.97652,0 l 6.620165,-6.620165 c 0.268646,-0.268647 0.268646,-0.707874 0,-0.97652 l -1.095305,-1.095304 c -0.268646,-0.268647 -0.707872,-0.268647 -0.976518,0 l -3.655387,3.655386 0,-10.359114 c 0,-0.379834 -0.310083,-0.690608 -0.690608,-0.690608 l -1.381215,0 c -0.379144,0 -0.690608,0.310774 -0.690608,0.690608 z"
     id="path6-0"
     inkscape:connector-curvature="0"
     style="fill-opacity:0.3;stroke-opacity:0.3" />
  <path
     d="m 18.618871,12.712102 0,10.359117 -3.655387,-3.655386 c -0.268647,-0.268647 -0.707872,-0.268647 -0.976519,0 l -1.095304,1.095303 c -0.268647,0.268646 -0.268647,0.707873 0,0.976519 l 6.620166,6.620166 c 0.268647,0.268646 0.707873,0.268646 0.97652,0 l 6.620165,-6.620166 c 0.268646,-0.268646 0.268646,-0.707873 0,-0.976519 l -1.095305,-1.095303 c -0.268646,-0.268647 -0.707872,-0.268647 -0.976518,0 l -3.655387,3.655386 0,-10.359117 c 0,-0.379833 -0.310773,-0.690607 -0.690608,-0.690607 l -1.381215,0 c -0.379834,0 -0.690608,0.310774 -0.690608,0.690607 z"
     id="path8-5"
     inkscape:connector-curvature="0"
     style="fill:#ffffff" />
</svg>
